<svg xmlns="http://www.w3.org/2000/svg" style="background-color: rgb(255, 255, 255); " width="484px" height="695px" version="1.1"><defs/><rect x="2.83" y="2" width="200" height="234.37" rx="30" ry="30" shape-rendering="crispEdges" fill="#ffffff" stroke="#000000" stroke-width="1.6666666666666667"/><g font-weight="bold" text-anchor="middle" font-size="10px" font-family="Helvetica" fill="#000000"><text x="102.83" y="15.17">Run data</text></g><rect x="27.83" y="28.04" width="150" height="25" rx="3.75" ry="3.75" shape-rendering="crispEdges" fill="#ffffff" stroke="#000000" stroke-width="1"/><g text-anchor="middle" font-size="10px" font-family="Helvetica" fill="#000000"><text x="102.83" y="42.29">Data from MIDAS</text></g><path d="M 102.83 68.59 L 99.33 61.59 L 102.83 63.34 L 106.33 61.59 Z" fill="#000000" stroke="#000000" stroke-width="0.8333333333333334" stroke-miterlimit="10"/><path d="M 102.83 53.04 L 102.83 63.34" shape-rendering="crispEdges" fill="none" stroke="#000000" stroke-miterlimit="10"/><rect x="27.83" y="111.37" width="150" height="25" rx="3.75" ry="3.75" shape-rendering="crispEdges" fill="#ffffff" stroke="#000000" stroke-width="1"/><g text-anchor="middle" font-size="10px" font-family="Helvetica" fill="#000000"><text x="102.83" y="125.62">Calibrate</text></g><rect x="27.83" y="194.71" width="150" height="25" rx="3.75" ry="3.75" shape-rendering="crispEdges" fill="#ffffff" stroke="#000000" stroke-width="1"/><g text-anchor="middle" font-size="10px" font-family="Helvetica" fill="#000000"><text x="102.83" y="208.96">Histogram TDC data</text></g><path d="M 102.83 151.92 L 99.33 144.92 L 102.83 146.67 L 106.33 144.92 Z" fill="#000000" stroke="#000000" stroke-width="0.8333333333333334" stroke-miterlimit="10"/><path d="M 102.83 136.37 L 102.83 146.67" shape-rendering="crispEdges" fill="none" stroke="#000000" stroke-miterlimit="10"/><path d="M 102.83 193.59 L 99.33 186.59 L 102.83 188.34 L 106.33 186.59 Z" fill="#000000" stroke="#000000" stroke-width="0.8333333333333334" stroke-miterlimit="10"/><path d="M 102.83 178.04 L 102.83 188.34" shape-rendering="crispEdges" fill="none" stroke="#000000" stroke-miterlimit="10"/><rect x="27.83" y="153.04" width="150" height="25" rx="3.75" ry="3.75" shape-rendering="crispEdges" fill="#ffffff" stroke="#000000" stroke-width="1"/><g text-anchor="middle" font-size="10px" font-family="Helvetica" fill="#000000"><text x="102.83" y="167.29">Restructure</text></g><rect x="27.83" y="69.71" width="150" height="25" rx="3.75" ry="3.75" shape-rendering="crispEdges" fill="#ffffff" stroke="#000000" stroke-width="1"/><g text-anchor="middle" font-size="10px" font-family="Helvetica" fill="#000000"><text x="102.83" y="83.96">De-serialise</text></g><path d="M 102.83 110.26 L 99.33 103.26 L 102.83 105.01 L 106.33 103.26 Z" fill="#000000" stroke="#000000" stroke-width="0.8333333333333334" stroke-miterlimit="10"/><path d="M 102.83 94.71 L 102.83 105.01" shape-rendering="crispEdges" fill="none" stroke="#000000" stroke-miterlimit="10"/><rect x="219.5" y="2" width="200" height="191.67" rx="28.75" ry="28.75" shape-rendering="crispEdges" fill="#ffffff" stroke="#000000" stroke-width="1.6666666666666667"/><g font-weight="bold" text-anchor="middle" font-size="10px" font-family="Helvetica" fill="#000000"><text x="319.5" y="15.17">Simulated Data</text></g><path d="M 319.5 150.88 L 316 143.88 L 319.5 145.63 L 323 143.88 Z" fill="#000000" stroke="#000000" stroke-width="0.8333333333333334" stroke-miterlimit="10"/><path d="M 319.5 135.33 L 319.5 145.63" shape-rendering="crispEdges" fill="none" stroke="#000000" stroke-miterlimit="10"/><path d="M 319.5 67.55 L 316 60.55 L 319.5 62.3 L 323 60.55 Z" fill="#000000" stroke="#000000" stroke-width="0.8333333333333334" stroke-miterlimit="10"/><path d="M 319.5 52 L 319.5 62.3" shape-rendering="crispEdges" fill="none" stroke="#000000" stroke-miterlimit="10"/><rect x="244.5" y="27" width="150" height="25" rx="3.75" ry="3.75" shape-rendering="crispEdges" fill="#ffffff" stroke="#000000" stroke-width="1"/><g text-anchor="middle" font-size="10px" font-family="Helvetica" fill="#000000"><text x="319.5" y="41.25">Particles from G4Beamline</text></g><path d="M 319.5 93.67 L 319.5 110.33" shape-rendering="crispEdges" fill="none" stroke="#000000" stroke-miterlimit="10"/><rect x="244.5" y="68.67" width="150" height="25" rx="3.75" ry="3.75" shape-rendering="crispEdges" fill="#ffffff" stroke="#000000" stroke-width="1"/><g text-anchor="middle" font-size="10px" font-family="Helvetica" fill="#000000"><text x="319.5" y="82.92">Geant4 simulation</text></g><rect x="244.5" y="152" width="150" height="25" rx="3.75" ry="3.75" shape-rendering="crispEdges" fill="#ffffff" stroke="#000000" stroke-width="1"/><g text-anchor="middle" font-size="10px" font-family="Helvetica" fill="#000000"><text x="319.5" y="166.25">Histogram 'TDC' data</text></g><rect x="244.5" y="110.33" width="150" height="25" rx="3.75" ry="3.75" shape-rendering="crispEdges" fill="#ffffff" stroke="#000000" stroke-width="1"/><g text-anchor="middle" font-size="10px" font-family="Helvetica" fill="#000000"><text x="319.5" y="124.58">Apply cuts</text></g><path d="M 347.82 666.81 L 348.93 657.93 L 351.15 661.81 L 355.59 662.37 Z" fill="#000000" stroke="#000000" stroke-width="1.6666666666666667" stroke-miterlimit="10"/><path d="M 363.25 643.67 L 351.15 661.81" fill="none" stroke="#000000" stroke-width="1.6666666666666667" stroke-miterlimit="10"/><rect x="152.83" y="668.67" width="258.33" height="25" rx="3.75" ry="3.75" shape-rendering="crispEdges" fill="#ffffff" stroke="#000000" stroke-width="1.6666666666666667"/><g font-weight="bold" text-anchor="middle" font-size="10px" font-family="Helvetica" fill="#000000"><text x="282" y="682.92">Muon yield</text></g><rect x="57" y="280.33" width="316.67" height="280" rx="42" ry="42" shape-rendering="crispEdges" fill="#ffffff" stroke="#000000" stroke-width="1.6666666666666667"/><g font-weight="bold" text-anchor="middle" font-size="10px" font-family="Helvetica" fill="#000000"><text x="215.33" y="293.5">Fitting &amp; Integration</text></g><path d="M 215.33 345.88 L 211.83 338.88 L 215.33 340.63 L 218.83 338.88 Z" fill="#000000" stroke="#000000" stroke-width="0.8333333333333334" stroke-miterlimit="10"/><path d="M 215.33 330.33 L 215.33 340.63" shape-rendering="crispEdges" fill="none" stroke="#000000" stroke-miterlimit="10"/><path d="M 215.33 387.55 L 211.83 380.55 L 215.33 382.3 L 218.83 380.55 Z" fill="#000000" stroke="#000000" stroke-width="0.8333333333333334" stroke-miterlimit="10"/><path d="M 215.33 372 L 215.33 382.3" shape-rendering="crispEdges" fill="none" stroke="#000000" stroke-miterlimit="10"/><path d="M 215.33 429.22 L 211.83 422.22 L 215.33 423.97 L 218.83 422.22 Z" fill="#000000" stroke="#000000" stroke-width="0.8333333333333334" stroke-miterlimit="10"/><path d="M 215.33 413.67 L 215.33 423.97" shape-rendering="crispEdges" fill="none" stroke="#000000" stroke-miterlimit="10"/><path d="M 215.33 470.88 L 211.83 463.88 L 215.33 465.63 L 218.83 463.88 Z" fill="#000000" stroke="#000000" stroke-width="0.8333333333333334" stroke-miterlimit="10"/><path d="M 215.33 455.33 L 215.33 465.63" shape-rendering="crispEdges" fill="none" stroke="#000000" stroke-miterlimit="10"/><path d="M 215.33 512.55 L 211.83 505.55 L 215.33 507.3 L 218.83 505.55 Z" fill="#000000" stroke="#000000" stroke-width="0.8333333333333334" stroke-miterlimit="10"/><path d="M 215.33 497 L 215.33 507.3" shape-rendering="crispEdges" fill="none" stroke="#000000" stroke-miterlimit="10"/><rect x="82" y="513.67" width="266.67" height="25" rx="3.75" ry="3.75" shape-rendering="crispEdges" fill="#ffffff" stroke="#000000" stroke-width="1"/><g text-anchor="middle" font-size="10px" font-family="Helvetica" fill="#000000"><text x="215.33" y="527.92">Total muons per run (sum over all channels)</text></g><rect x="82" y="472" width="266.67" height="25" rx="3.75" ry="3.75" shape-rendering="crispEdges" fill="#ffffff" stroke="#000000" stroke-width="1"/><g text-anchor="middle" font-size="10px" font-family="Helvetica" fill="#000000"><text x="215.33" y="486.25">Total muons per channel (sum over both components)</text></g><rect x="82" y="430.33" width="266.67" height="25" rx="3.75" ry="3.75" shape-rendering="crispEdges" fill="#ffffff" stroke="#000000" stroke-width="1"/><g text-anchor="middle" font-size="10px" font-family="Helvetica" fill="#000000"><text x="215.33" y="444.58">Calculate Integral of each component</text></g><rect x="82" y="388.67" width="266.67" height="25" rx="3.75" ry="3.75" shape-rendering="crispEdges" fill="#ffffff" stroke="#000000" stroke-width="1"/><g text-anchor="middle" font-size="10px" font-family="Helvetica" fill="#000000"><text x="215.33" y="402.92">Separate out each component function</text></g><rect x="82" y="347" width="266.67" height="25" rx="3.75" ry="3.75" shape-rendering="crispEdges" fill="#ffffff" stroke="#000000" stroke-width="1"/><g text-anchor="middle" font-size="10px" font-family="Helvetica" fill="#000000"><text x="215.33" y="361.25">Fit curve</text></g><rect x="82" y="305.33" width="266.67" height="25" rx="3.75" ry="3.75" shape-rendering="crispEdges" fill="#ffffff" stroke="#000000" stroke-width="1"/><g text-anchor="middle" font-size="10px" font-family="Helvetica" fill="#000000"><text x="215.33" y="319.58">Rebin histogram</text></g><path d="M 217.38 666.43 L 213.25 658.5 L 217.28 660.43 L 221.25 658.37 Z" fill="#000000" stroke="#000000" stroke-width="1.6666666666666667" stroke-miterlimit="10"/><path d="M 215.33 538.67 L 217.28 660.43" fill="none" stroke="#000000" stroke-width="1.6666666666666667" stroke-miterlimit="10"/><rect x="244.5" y="585.33" width="237.5" height="58.33" rx="8.75" ry="8.75" shape-rendering="crispEdges" fill="#ffffff" stroke="#000000" stroke-width="1.6666666666666667"/><g font-weight="bold" text-anchor="middle" font-size="10px" font-family="Helvetica" fill="#000000"><text x="363.25" y="598.5">Secondary calculations</text></g><rect x="257" y="610.33" width="100" height="25" rx="3.75" ry="3.75" shape-rendering="crispEdges" fill="#ffffff" stroke="#000000" stroke-width="1"/><g text-anchor="middle" font-size="10px" font-family="Helvetica" fill="#000000"><text x="307" y="624.58">Acceptance</text></g><rect x="373.67" y="610.33" width="100" height="25" rx="3.75" ry="3.75" shape-rendering="crispEdges" fill="#ffffff" stroke="#000000" stroke-width="1"/><g text-anchor="middle" font-size="10px" font-family="Helvetica" fill="#000000"><text x="423.67" y="624.58">Dead time</text></g><path d="M 282.63 303.19 L 281.03 294.39 L 284.31 297.43 L 288.71 296.63 Z" fill="#000000" stroke="#000000" stroke-width="1.6666666666666667" stroke-miterlimit="10"/><path d="M 319.5 177 L 284.31 297.43" fill="none" stroke="#000000" stroke-width="1.6666666666666667" stroke-miterlimit="10"/><path d="M 147.61 303.36 L 140.31 298.2 L 144.78 298.07 L 147.36 294.42 Z" fill="#000000" stroke="#000000" stroke-width="1.6666666666666667" stroke-miterlimit="10"/><path d="M 102.83 219.71 L 144.78 298.07" fill="none" stroke="#000000" stroke-width="1.6666666666666667" stroke-miterlimit="10"/></svg>