<svg xmlns="http://www.w3.org/2000/svg" style="background-color: rgb(255, 255, 255); " width="676px" height="580px" version="1.1"><defs/><rect x="2.83" y="3" width="200" height="234.37" rx="30" ry="30" shape-rendering="crispEdges" fill="#ffffff" stroke="#000000" stroke-width="1.6666666666666667"/><g font-weight="bold" text-anchor="middle" font-size="10px" font-family="Helvetica" fill="#000000"><text x="102.83" y="16.17">Run data</text></g><rect x="27.83" y="29.04" width="150" height="25" rx="3.75" ry="3.75" shape-rendering="crispEdges" fill="#ffffff" stroke="#000000" stroke-width="1"/><g text-anchor="middle" font-size="10px" font-family="Helvetica" fill="#000000"><text x="102.83" y="43.29">Data from MIDAS</text></g><path d="M 102.83 69.59 L 99.33 62.59 L 102.83 64.34 L 106.33 62.59 Z" fill="#000000" stroke="#000000" stroke-width="0.8333333333333334" stroke-miterlimit="10"/><path d="M 102.83 54.04 L 102.83 64.34" shape-rendering="crispEdges" fill="none" stroke="#000000" stroke-miterlimit="10"/><rect x="27.83" y="112.37" width="150" height="25" rx="3.75" ry="3.75" shape-rendering="crispEdges" fill="#ffffff" stroke="#000000" stroke-width="1"/><g text-anchor="middle" font-size="10px" font-family="Helvetica" fill="#000000"><text x="102.83" y="126.62">Calibrate</text></g><rect x="27.83" y="195.71" width="150" height="25" rx="3.75" ry="3.75" shape-rendering="crispEdges" fill="#ffffff" stroke="#000000" stroke-width="1"/><g text-anchor="middle" font-size="10px" font-family="Helvetica" fill="#000000"><text x="102.83" y="209.96">Histogram TDC data</text></g><path d="M 102.83 152.92 L 99.33 145.92 L 102.83 147.67 L 106.33 145.92 Z" fill="#000000" stroke="#000000" stroke-width="0.8333333333333334" stroke-miterlimit="10"/><path d="M 102.83 137.37 L 102.83 147.67" shape-rendering="crispEdges" fill="none" stroke="#000000" stroke-miterlimit="10"/><path d="M 102.83 194.59 L 99.33 187.59 L 102.83 189.34 L 106.33 187.59 Z" fill="#000000" stroke="#000000" stroke-width="0.8333333333333334" stroke-miterlimit="10"/><path d="M 102.83 179.04 L 102.83 189.34" shape-rendering="crispEdges" fill="none" stroke="#000000" stroke-miterlimit="10"/><rect x="27.83" y="154.04" width="150" height="25" rx="3.75" ry="3.75" shape-rendering="crispEdges" fill="#ffffff" stroke="#000000" stroke-width="1"/><g text-anchor="middle" font-size="10px" font-family="Helvetica" fill="#000000"><text x="102.83" y="168.29">Restructure</text></g><rect x="27.83" y="70.71" width="150" height="25" rx="3.75" ry="3.75" shape-rendering="crispEdges" fill="#ffffff" stroke="#000000" stroke-width="1"/><g text-anchor="middle" font-size="10px" font-family="Helvetica" fill="#000000"><text x="102.83" y="84.96">De-serialise</text></g><path d="M 102.83 111.26 L 99.33 104.26 L 102.83 106.01 L 106.33 104.26 Z" fill="#000000" stroke="#000000" stroke-width="0.8333333333333334" stroke-miterlimit="10"/><path d="M 102.83 95.71 L 102.83 106.01" shape-rendering="crispEdges" fill="none" stroke="#000000" stroke-miterlimit="10"/><rect x="440.33" y="3" width="233.33" height="150" rx="22.5" ry="22.5" shape-rendering="crispEdges" fill="#ffffff" stroke="#000000" stroke-width="1.6666666666666667"/><g font-weight="bold" text-anchor="middle" font-size="10px" font-family="Helvetica" fill="#000000"><text x="557" y="16.17">Acceptance</text></g><rect x="457" y="28" width="200" height="25" rx="3.75" ry="3.75" shape-rendering="crispEdges" fill="#ffffff" stroke="#000000" stroke-width="1"/><g text-anchor="middle" font-size="10px" font-family="Helvetica" fill="#000000"><text x="557" y="42.25">Truth data of particles at beam-pipe</text></g><rect x="457" y="111.33" width="200" height="25" rx="3.75" ry="3.75" shape-rendering="crispEdges" fill="#ffffff" stroke="#000000" stroke-width="1"/><g text-anchor="middle" font-size="10px" font-family="Helvetica" fill="#000000"><text x="557" y="125.58">Calculate acceptance</text></g><path d="M 557 110.22 L 553.5 103.22 L 557 104.97 L 560.5 103.22 Z" fill="#000000" stroke="#000000" stroke-width="0.8333333333333334" stroke-miterlimit="10"/><path d="M 557 53 L 557 104.97" shape-rendering="crispEdges" fill="none" stroke="#000000" stroke-miterlimit="10"/><rect x="219.5" y="3" width="200" height="191.67" rx="28.75" ry="28.75" shape-rendering="crispEdges" fill="#ffffff" stroke="#000000" stroke-width="1.6666666666666667"/><g font-weight="bold" text-anchor="middle" font-size="10px" font-family="Helvetica" fill="#000000"><text x="319.5" y="16.17">Simulated Data</text></g><path d="M 319.5 151.88 L 316 144.88 L 319.5 146.63 L 323 144.88 Z" fill="#000000" stroke="#000000" stroke-width="0.8333333333333334" stroke-miterlimit="10"/><path d="M 319.5 136.33 L 319.5 146.63" shape-rendering="crispEdges" fill="none" stroke="#000000" stroke-miterlimit="10"/><path d="M 319.5 68.55 L 316 61.55 L 319.5 63.3 L 323 61.55 Z" fill="#000000" stroke="#000000" stroke-width="0.8333333333333334" stroke-miterlimit="10"/><path d="M 319.5 53 L 319.5 63.3" shape-rendering="crispEdges" fill="none" stroke="#000000" stroke-miterlimit="10"/><rect x="244.5" y="28" width="150" height="25" rx="3.75" ry="3.75" shape-rendering="crispEdges" fill="#ffffff" stroke="#000000" stroke-width="1"/><g text-anchor="middle" font-size="10px" font-family="Helvetica" fill="#000000"><text x="319.5" y="42.25">Particles from G4Beamline</text></g><path d="M 319.5 94.67 L 319.5 111.33" shape-rendering="crispEdges" fill="none" stroke="#000000" stroke-miterlimit="10"/><rect x="244.5" y="69.67" width="150" height="25" rx="3.75" ry="3.75" shape-rendering="crispEdges" fill="#ffffff" stroke="#000000" stroke-width="1"/><g text-anchor="middle" font-size="10px" font-family="Helvetica" fill="#000000"><text x="319.5" y="83.92">Geant4 simulation</text></g><rect x="244.5" y="153" width="150" height="25" rx="3.75" ry="3.75" shape-rendering="crispEdges" fill="#ffffff" stroke="#000000" stroke-width="1"/><g text-anchor="middle" font-size="10px" font-family="Helvetica" fill="#000000"><text x="319.5" y="167.25">Histogram 'TDC' data</text></g><rect x="244.5" y="111.33" width="150" height="25" rx="3.75" ry="3.75" shape-rendering="crispEdges" fill="#ffffff" stroke="#000000" stroke-width="1"/><g text-anchor="middle" font-size="10px" font-family="Helvetica" fill="#000000"><text x="319.5" y="125.58">Apply cuts</text></g><path d="M 454.76 40.5 L 446.76 44.5 L 448.76 40.5 L 446.76 36.5 Z" fill="#000000" stroke="#000000" stroke-width="1.6666666666666667" stroke-miterlimit="10"/><path d="M 394.5 40.5 L 448.76 40.5" fill="none" stroke="#000000" stroke-width="1.6666666666666667" stroke-miterlimit="10"/><path d="M 454.76 123.83 L 446.76 127.83 L 448.76 123.83 L 446.76 119.83 Z" fill="#000000" stroke="#000000" stroke-width="1.6666666666666667" stroke-miterlimit="10"/><path d="M 394.5 123.83 L 448.76 123.83" fill="none" stroke="#000000" stroke-width="1.6666666666666667" stroke-miterlimit="10"/><rect x="190.33" y="553" width="258.33" height="25" rx="3.75" ry="3.75" shape-rendering="crispEdges" fill="#ffffff" stroke="#000000" stroke-width="1.6666666666666667"/><g font-weight="bold" text-anchor="middle" font-size="10px" font-family="Helvetica" fill="#000000"><text x="319.5" y="567.25">Muon yield</text></g><rect x="57" y="253" width="316.67" height="280" rx="42" ry="42" shape-rendering="crispEdges" fill="#ffffff" stroke="#000000" stroke-width="1.6666666666666667"/><g font-weight="bold" text-anchor="middle" font-size="10px" font-family="Helvetica" fill="#000000"><text x="215.33" y="266.17">Fitting &amp; Integration</text></g><path d="M 215.33 318.55 L 211.83 311.55 L 215.33 313.3 L 218.83 311.55 Z" fill="#000000" stroke="#000000" stroke-width="0.8333333333333334" stroke-miterlimit="10"/><path d="M 215.33 303 L 215.33 313.3" shape-rendering="crispEdges" fill="none" stroke="#000000" stroke-miterlimit="10"/><path d="M 215.33 360.22 L 211.83 353.22 L 215.33 354.97 L 218.83 353.22 Z" fill="#000000" stroke="#000000" stroke-width="0.8333333333333334" stroke-miterlimit="10"/><path d="M 215.33 344.67 L 215.33 354.97" shape-rendering="crispEdges" fill="none" stroke="#000000" stroke-miterlimit="10"/><path d="M 215.33 401.88 L 211.83 394.88 L 215.33 396.63 L 218.83 394.88 Z" fill="#000000" stroke="#000000" stroke-width="0.8333333333333334" stroke-miterlimit="10"/><path d="M 215.33 386.33 L 215.33 396.63" shape-rendering="crispEdges" fill="none" stroke="#000000" stroke-miterlimit="10"/><path d="M 215.33 443.55 L 211.83 436.55 L 215.33 438.3 L 218.83 436.55 Z" fill="#000000" stroke="#000000" stroke-width="0.8333333333333334" stroke-miterlimit="10"/><path d="M 215.33 428 L 215.33 438.3" shape-rendering="crispEdges" fill="none" stroke="#000000" stroke-miterlimit="10"/><path d="M 215.33 485.22 L 211.83 478.22 L 215.33 479.97 L 218.83 478.22 Z" fill="#000000" stroke="#000000" stroke-width="0.8333333333333334" stroke-miterlimit="10"/><path d="M 215.33 469.67 L 215.33 479.97" shape-rendering="crispEdges" fill="none" stroke="#000000" stroke-miterlimit="10"/><rect x="82" y="486.33" width="266.67" height="25" rx="3.75" ry="3.75" shape-rendering="crispEdges" fill="#ffffff" stroke="#000000" stroke-width="1"/><g text-anchor="middle" font-size="10px" font-family="Helvetica" fill="#000000"><text x="215.33" y="500.58">Total muons per run (sum over all channels)</text></g><rect x="82" y="444.67" width="266.67" height="25" rx="3.75" ry="3.75" shape-rendering="crispEdges" fill="#ffffff" stroke="#000000" stroke-width="1"/><g text-anchor="middle" font-size="10px" font-family="Helvetica" fill="#000000"><text x="215.33" y="458.92">Total muons per channel (sum over both components)</text></g><rect x="82" y="403" width="266.67" height="25" rx="3.75" ry="3.75" shape-rendering="crispEdges" fill="#ffffff" stroke="#000000" stroke-width="1"/><g text-anchor="middle" font-size="10px" font-family="Helvetica" fill="#000000"><text x="215.33" y="417.25">Calculate Integral of each component</text></g><rect x="82" y="361.33" width="266.67" height="25" rx="3.75" ry="3.75" shape-rendering="crispEdges" fill="#ffffff" stroke="#000000" stroke-width="1"/><g text-anchor="middle" font-size="10px" font-family="Helvetica" fill="#000000"><text x="215.33" y="375.58">Separate out each component function</text></g><rect x="82" y="319.67" width="266.67" height="25" rx="3.75" ry="3.75" shape-rendering="crispEdges" fill="#ffffff" stroke="#000000" stroke-width="1"/><g text-anchor="middle" font-size="10px" font-family="Helvetica" fill="#000000"><text x="215.33" y="333.92">Fit curve</text></g><rect x="82" y="278" width="266.67" height="25" rx="3.75" ry="3.75" shape-rendering="crispEdges" fill="#ffffff" stroke="#000000" stroke-width="1"/><g text-anchor="middle" font-size="10px" font-family="Helvetica" fill="#000000"><text x="215.33" y="292.25">Rebin histogram</text></g><path d="M 253.38 551.38 L 244.97 548.33 L 249.24 547.03 L 250.77 542.82 Z" fill="#000000" stroke="#000000" stroke-width="1.6666666666666667" stroke-miterlimit="10"/><path d="M 215.33 511.33 L 249.24 547.03" fill="none" stroke="#000000" stroke-width="1.6666666666666667" stroke-miterlimit="10"/><path d="M 282.79 275.91 L 281.85 267.01 L 284.89 270.29 L 289.34 269.82 Z" fill="#000000" stroke="#000000" stroke-width="1.6666666666666667" stroke-miterlimit="10"/><path d="M 319.5 178 L 284.89 270.29" fill="none" stroke="#000000" stroke-width="1.6666666666666667" stroke-miterlimit="10"/><path d="M 147.27 276.25 L 139.15 272.51 L 143.52 271.57 L 145.4 267.51 Z" fill="#000000" stroke="#000000" stroke-width="1.6666666666666667" stroke-miterlimit="10"/><path d="M 102.83 220.71 L 143.52 271.57" fill="none" stroke="#000000" stroke-width="1.6666666666666667" stroke-miterlimit="10"/><path d="M 384.94 550.93 L 384.31 542.01 L 387.24 545.39 L 391.7 545.08 Z" fill="#000000" stroke="#000000" stroke-width="1.6666666666666667" stroke-miterlimit="10"/><path d="M 557 136.33 L 387.24 545.39" fill="none" stroke="#000000" stroke-width="1.6666666666666667" stroke-miterlimit="10"/></svg>