<svg xmlns="http://www.w3.org/2000/svg" style="background-color: rgb(255, 255, 255); " width="354px" height="636px" version="1.1"><defs/><rect x="196.85" y="57.47" width="11.58" height="69.48" shape-rendering="crispEdges" fill="#ffffff" stroke="#000000" stroke-width="1"/><rect x="237.38" y="57.47" width="5.79" height="521.1" shape-rendering="crispEdges" fill="#ffffff" stroke="#000000" stroke-width="1"/><rect x="272.12" y="57.47" width="40.53" height="104.22" shape-rendering="crispEdges" fill="#ffffff" stroke="#000000" stroke-width="1"/><rect x="196.85" y="126.95" width="11.58" height="63.69" shape-rendering="crispEdges" fill="#ffffff" stroke="#000000" stroke-width="1"/><rect x="196.85" y="190.64" width="11.58" height="63.69" shape-rendering="crispEdges" fill="#ffffff" stroke="#000000" stroke-width="1"/><rect x="196.85" y="254.33" width="11.58" height="63.69" shape-rendering="crispEdges" fill="#ffffff" stroke="#000000" stroke-width="1"/><rect x="196.85" y="318.02" width="11.58" height="63.69" shape-rendering="crispEdges" fill="#ffffff" stroke="#000000" stroke-width="1"/><rect x="196.85" y="381.71" width="11.58" height="63.69" shape-rendering="crispEdges" fill="#ffffff" stroke="#000000" stroke-width="1"/><rect x="196.85" y="445.4" width="11.58" height="63.69" shape-rendering="crispEdges" fill="#ffffff" stroke="#000000" stroke-width="1"/><rect x="196.85" y="509.09" width="11.58" height="69.48" shape-rendering="crispEdges" fill="#ffffff" stroke="#000000" stroke-width="1"/><rect x="272.12" y="161.69" width="40.53" height="104.22" shape-rendering="crispEdges" fill="#ffffff" stroke="#000000" stroke-width="1"/><rect x="272.12" y="265.91" width="40.53" height="104.22" shape-rendering="crispEdges" fill="#ffffff" stroke="#000000" stroke-width="1"/><rect x="272.12" y="370.13" width="40.53" height="104.22" shape-rendering="crispEdges" fill="#ffffff" stroke="#000000" stroke-width="1"/><rect x="272.12" y="474.35" width="40.53" height="104.22" shape-rendering="crispEdges" fill="#ffffff" stroke="#000000" stroke-width="1"/><rect x="104.21" y="57.47" width="57.9" height="521.1" shape-rendering="crispEdges" fill="#ffffff" stroke="#000000" stroke-width="1"/><g text-anchor="middle" font-size="13px" font-family="Helvetica" fill="#000000"><text x="133.16" y="26.25">Degrader</text></g><g text-anchor="middle" font-size="13px" font-family="Helvetica" fill="#000000"><text x="202.64" y="612.15">Upstream</text><text x="202.64" y="629.05">Counter</text></g><g text-anchor="middle" font-size="13px" font-family="Helvetica" fill="#000000"><text x="292.38" y="612.15">Downstream</text><text x="292.38" y="629.05">Counter</text></g><g text-anchor="middle" font-size="13px" font-family="Helvetica" fill="#000000"><text x="240.27" y="17.23">Stopping</text><text x="240.27" y="34.13">Target</text></g><path d="M 240.27 55.23 L 236.27 47.23 L 240.27 49.23 L 244.27 47.23 Z" fill="#000000" stroke="#000000" stroke-width="1.158" stroke-miterlimit="10"/><path d="M 240.27 40.1 L 240.27 49.23" shape-rendering="crispEdges" fill="none" stroke="#000000" stroke-width="1.158" stroke-miterlimit="10"/><path d="M 133.16 55.23 L 129.16 47.23 L 133.16 49.23 L 137.16 47.23 Z" fill="#000000" stroke="#000000" stroke-width="1.158" stroke-miterlimit="10"/><path d="M 133.16 32.86 L 133.16 49.23" shape-rendering="crispEdges" fill="none" stroke="#000000" stroke-width="1.158" stroke-miterlimit="10"/><path d="M 292.38 580.81 L 296.38 588.81 L 292.38 586.81 L 288.38 588.81 Z" fill="#000000" stroke="#000000" stroke-width="1.158" stroke-miterlimit="10"/><path d="M 292.39 601.73 L 292.38 586.81" fill="none" stroke="#000000" stroke-width="1.158" stroke-miterlimit="10"/><path d="M 202.64 580.81 L 206.64 588.81 L 202.64 586.81 L 198.64 588.81 Z" fill="#000000" stroke="#000000" stroke-width="1.158" stroke-miterlimit="10"/><path d="M 202.64 601.73 L 202.64 586.81" shape-rendering="crispEdges" fill="none" stroke="#000000" stroke-width="1.158" stroke-miterlimit="10"/><path d="M 2.89 309.34 L 58.94 309.34 L 58.94 297.76 L 95.53 318.02 L 58.94 338.29 L 58.94 326.71 L 2.89 326.71 Z" fill="#ffffff" stroke="#000000" stroke-width="1.158" stroke-miterlimit="10"/><g text-anchor="middle" font-size="13px" font-family="Helvetica" fill="#000000"><text x="49.21" y="321.54">Muons</text></g></svg>