<svg xmlns="http://www.w3.org/2000/svg" style="background-color: rgb(255, 255, 255); " width="260px" height="637px" version="1.1"><defs/><rect x="103.51" y="58.19" width="11.57" height="69.44" shape-rendering="crispEdges" fill="#ffffff" stroke="#000000" stroke-width="1"/><rect x="144.02" y="58.19" width="5.79" height="520.83" shape-rendering="crispEdges" fill="#ffffff" stroke="#000000" stroke-width="1"/><rect x="178.74" y="58.19" width="40.51" height="104.17" shape-rendering="crispEdges" fill="#ffffff" stroke="#000000" stroke-width="1"/><rect x="103.51" y="127.64" width="11.57" height="63.66" shape-rendering="crispEdges" fill="#ffffff" stroke="#000000" stroke-width="1"/><rect x="103.51" y="191.3" width="11.57" height="63.66" shape-rendering="crispEdges" fill="#ffffff" stroke="#000000" stroke-width="1"/><rect x="103.51" y="254.95" width="11.57" height="63.66" shape-rendering="crispEdges" fill="#ffffff" stroke="#000000" stroke-width="1"/><rect x="103.51" y="318.61" width="11.57" height="63.66" shape-rendering="crispEdges" fill="#ffffff" stroke="#000000" stroke-width="1"/><rect x="103.51" y="382.27" width="11.57" height="63.66" shape-rendering="crispEdges" fill="#ffffff" stroke="#000000" stroke-width="1"/><rect x="103.51" y="445.93" width="11.57" height="63.66" shape-rendering="crispEdges" fill="#ffffff" stroke="#000000" stroke-width="1"/><rect x="103.51" y="509.58" width="11.57" height="69.44" shape-rendering="crispEdges" fill="#ffffff" stroke="#000000" stroke-width="1"/><rect x="178.74" y="162.36" width="40.51" height="104.17" shape-rendering="crispEdges" fill="#ffffff" stroke="#000000" stroke-width="1"/><rect x="178.74" y="266.53" width="40.51" height="104.17" shape-rendering="crispEdges" fill="#ffffff" stroke="#000000" stroke-width="1"/><rect x="178.74" y="370.69" width="40.51" height="104.17" shape-rendering="crispEdges" fill="#ffffff" stroke="#000000" stroke-width="1"/><rect x="178.74" y="474.86" width="40.51" height="104.17" shape-rendering="crispEdges" fill="#ffffff" stroke="#000000" stroke-width="1"/><rect x="10.92" y="58.19" width="57.87" height="520.83" shape-rendering="crispEdges" fill="#ffffff" stroke="#000000" stroke-width="1"/><g text-anchor="middle" font-size="13px" font-family="Helvetica" fill="#000000"><text x="39.85" y="26.99">Degrader</text></g><g text-anchor="middle" font-size="13px" font-family="Helvetica" fill="#000000"><text x="109.3" y="612.58">Upstream</text><text x="109.3" y="629.48">Counter</text></g><g text-anchor="middle" font-size="13px" font-family="Helvetica" fill="#000000"><text x="199" y="612.58">Downstream</text><text x="199" y="629.48">Counter</text></g><g text-anchor="middle" font-size="13px" font-family="Helvetica" fill="#000000"><text x="146.91" y="17.97">Stopping</text><text x="146.91" y="34.87">Target</text></g><path d="M 146.91 55.96 L 142.91 47.96 L 146.91 49.96 L 150.91 47.96 Z" fill="#000000" stroke="#000000" stroke-width="1.1574074074074077" stroke-miterlimit="10"/><path d="M 146.91 40.83 L 146.91 49.96" shape-rendering="crispEdges" fill="none" stroke="#000000" stroke-width="1.1574074074074077" stroke-miterlimit="10"/><path d="M 39.85 55.96 L 35.85 47.96 L 39.85 49.96 L 43.85 47.96 Z" fill="#000000" stroke="#000000" stroke-width="1.1574074074074077" stroke-miterlimit="10"/><path d="M 39.85 33.6 L 39.85 49.96" shape-rendering="crispEdges" fill="none" stroke="#000000" stroke-width="1.1574074074074077" stroke-miterlimit="10"/><path d="M 199 581.26 L 203 589.26 L 199 587.26 L 195 589.26 Z" fill="#000000" stroke="#000000" stroke-width="1.1574074074074077" stroke-miterlimit="10"/><path d="M 199 602.18 L 199 587.26" shape-rendering="crispEdges" fill="none" stroke="#000000" stroke-width="1.1574074074074077" stroke-miterlimit="10"/><path d="M 109.3 581.26 L 113.3 589.26 L 109.3 587.26 L 105.3 589.26 Z" fill="#000000" stroke="#000000" stroke-width="1.1574074074074077" stroke-miterlimit="10"/><path d="M 109.3 602.18 L 109.3 587.26" shape-rendering="crispEdges" fill="none" stroke="#000000" stroke-width="1.1574074074074077" stroke-miterlimit="10"/></svg>